<?xml version="1.0" standalone="no"?>
<!DOCTYPE svg PUBLIC "-//W3C//DTD SVG 20010904//EN"
 "http://www.w3.org/TR/2001/REC-SVG-20010904/DTD/svg10.dtd">
<svg version="1.0" xmlns="http://www.w3.org/2000/svg"
 width="512.000000pt" height="512.000000pt" viewBox="0 0 512.000000 512.000000"
 preserveAspectRatio="xMidYMid meet">

<g transform="translate(0.000000,512.000000) scale(0.100000,-0.100000)"
fill="#000000" stroke="none">
<path d="M3651 4875 c-43 -13 -101 -60 -124 -100 -8 -14 -14 -122 -17 -339
l-5 -319 -355 304 c-195 168 -371 314 -390 326 -48 29 -134 53 -191 53 -59 0
-156 -30 -201 -61 -52 -37 -2177 -1835 -2235 -1891 -63 -62 -98 -124 -113
-205 -33 -169 70 -350 234 -412 80 -30 191 -29 268 3 l58 24 2 -1002 3 -1001
22 -40 c27 -51 57 -79 113 -104 45 -20 54 -21 1830 -20 1465 0 1792 2 1823 13
57 21 103 61 128 113 l24 48 3 996 2 997 61 -25 c73 -30 188 -33 259 -8 113
40 214 147 240 255 21 87 9 190 -31 268 -32 62 -51 82 -282 280 l-247 213 0
732 c0 715 -1 733 -21 777 -25 56 -53 86 -104 113 -38 21 -53 22 -375 24 -263
2 -344 -1 -379 -12z m688 -172 l21 -18 -2 -646 -3 -647 -337 292 -338 291 0
367 c0 284 3 367 13 371 6 3 150 6 318 6 278 1 309 -1 328 -16z m-1687 -91
c35 -16 293 -234 1384 -1172 259 -223 558 -479 663 -568 213 -182 231 -205
231 -298 0 -75 -33 -133 -98 -171 -60 -35 -140 -38 -193 -7 -19 12 -493 413
-1052 892 l-1017 872 -967 -817 c-533 -449 -995 -841 -1028 -871 -79 -71 -127
-95 -191 -95 -104 0 -190 79 -200 184 -12 111 -71 55 1154 1091 606 513 1121
943 1144 956 50 27 118 29 170 4z m817 -1450 l891 -763 0 -1049 c0 -1037 0
-1050 -20 -1070 -19 -19 -33 -20 -420 -20 l-400 0 0 643 c0 727 1 713 -71 786
-73 73 -49 71 -883 71 -466 0 -754 -4 -777 -10 -52 -15 -99 -49 -134 -99 l-30
-43 -3 -674 -3 -674 -419 0 -419 0 -15 22 c-14 20 -16 138 -16 1069 l0 1046
907 767 c499 421 911 765 914 764 4 -2 408 -346 898 -766z m-139 -1592 c20
-20 20 -33 20 -665 l0 -645 -780 0 -780 0 0 647 c0 587 2 648 17 665 15 17 52
18 760 18 730 0 743 0 763 -20z"/>
<path d="M2206 3207 c-25 -14 -48 -39 -63 -67 -24 -45 -24 -45 -21 -366 l3
-321 29 -37 c56 -74 74 -77 429 -74 l314 3 40 27 c72 48 74 56 74 418 0 333
-1 340 -45 388 -46 51 -53 52 -398 52 -316 0 -324 -1 -362 -23z m642 -419 l2
-278 -280 0 -280 0 0 280 0 280 278 -2 277 -3 3 -277z"/>
<path d="M2877 1260 c-41 -35 -52 -78 -33 -124 39 -94 166 -103 212 -15 18 36
18 72 -1 109 -35 68 -119 82 -178 30z"/>
</g>
</svg>
