<svg height="512" viewBox="0 0 64 64" width="512" xmlns="http://www.w3.org/2000/svg"><g id="Desk-furniture-2" data-name="Desk-furniture"><path d="m61 28h-9.5l-1.5-2h2a1 1 0 0 0 1-1v-22a1 1 0 0 0 -1-1h-40a1 1 0 0 0 -1 1v22a1 1 0 0 0 1 1h2l-1.5 2h-9.5a1 1 0 0 0 -1 1v4a1 1 0 0 0 1 1h1v21a1 1 0 0 0 1 1h1v5a1 1 0 0 0 1 1h4a1.014 1.014 0 0 0 .95-.68l1.77-5.32h36.56l1.77 5.32a1.014 1.014 0 0 0 .95.68h4a1 1 0 0 0 1-1v-5h1a1 1 0 0 0 1-1v-21h1a1 1 0 0 0 1-1v-4a1 1 0 0 0 -1-1zm-48-4v-20h38v20zm36 4h-2l1-1.33zm-3-2-1.5 2h-25l-1.5-2zm-29 2h-2l1-1.33zm-6.72 32h-2.28v-4h3.61zm20.72-6h-25v-12h25zm0-14h-25v-6h25zm25 20h-2.28l-1.33-4h3.61zm2-6h-25v-12h25zm0-14h-25v-6h25zm2-8h-56v-2h56z"/><path d="m17 35h4v2h-4z"/><path d="m43 35h4v2h-4z"/><circle cx="27" cy="48" r="2"/><circle cx="37" cy="48" r="2"/></g></svg>