<!--?xml version="1.0" standalone="no"?-->
              <svg id="sw-js-blob-svg" viewBox="0 0 100 100" xmlns="http://www.w3.org/2000/svg" version="1.1">
                    <defs> 
                        <linearGradient id="sw-gradient" x1="0" x2="1" y1="1" y2="0">
                            <stop id="stop1" stop-color="rgba(248, 117, 55, 1)" offset="0%"></stop>
                            <stop id="stop2" stop-color="rgba(251, 168, 31, 1)" offset="100%"></stop>
                        </linearGradient>
                    </defs>
                <path fill="url(#sw-gradient)" d="M27.3,-29.9C35.1,-26,41.1,-17.1,40.9,-8.6C40.8,-0.1,34.6,8.2,29.5,17C24.3,25.8,20.3,35.2,13.5,38C6.8,40.9,-2.7,37.2,-9.7,32.2C-16.7,27.3,-21.3,21.1,-27,14.1C-32.8,7.2,-39.8,-0.5,-38.8,-7C-37.9,-13.5,-29,-18.7,-21.2,-22.7C-13.4,-26.7,-6.7,-29.4,1.5,-31.2C9.7,-33,19.5,-33.9,27.3,-29.9Z" width="100%" height="100%" transform="translate(50 50)" stroke-width="0" style="transition: all 0.3s ease 0s;"></path>
              </svg>