<svg xmlns="http://www.w3.org/2000/svg" width="500" height="5
            00" viewBox="0 0 500 500">
    <clipPath id="c1">
        <path
            d="M27.3,-32.3C33.9,-27.1,36.6,-17,38.3,-6.9C40,3.3,40.5,13.5,36.5,21.8C32.6,30.1,24.1,36.4,14.6,39.9C5,43.3,-5.5,43.7,-13.5,39.7C-21.5,35.7,-26.8,27.1,-31.6,18.5C-36.4,9.8,-40.6,0.9,-38.9,-6.6C-37.2,-14.1,-29.7,-20.3,-22.3,-25.4C-14.8,-30.5,-7.4,-34.4,1.5,-36.2C10.4,-38,20.8,-37.6,27.3,-32.3Z"
            transform="translate(500 500)" stroke-width="0" style="transition: all 0.3s ease 0s;">
        </path>

    </clipPath>
    <clipPath id="c2">
        <path
            d="M 213.6 0 c 35.9974 0 53.9961 0 66.6137 9.1672 a 48.0000 48.0000 0 0 1 10.6191 10.6191 c 9.1672 12.6175 9.1672 30.6163 9.1672 66.6137 L 300 213.6 c 0 35.9974 0 53.9961 -9.1672 66.6137 a 48.0000 48.0000 0 0 1 -10.6191 10.6191 c -12.6175 9.1672 -30.6163 9.1672 -66.6137 9.1672 L 86.4 300 c -35.9974 0 -53.9961 0 -66.6137 -9.1672 a 48.0000 48.0000 0 0 1 -10.6191 -10.6191 c -9.1672 -12.6175 -9.1672 -30.6163 -9.1672 -66.6137 L 0 86.4 c 0 -35.9974 0 -53.9961 9.1672 -66.6137 a 48.0000 48.0000 0 0 1 10.6191 -10.6191 c 12.6175 -9.1672 30.6163 -9.1672 66.6137 -9.1672 Z"
            fill="#4F46E5" />
    </clipPath>
</svg>